<svg xmlns="http://www.w3.org/2000/svg" viewBox="0 0 32 32" width="32" height="32">
  <!-- Fundo circular com gradiente -->
  <circle cx="16" cy="16" r="16" fill="url(#ballGradient)"/>
  <defs>
    <radialGradient id="ballGradient" cx="0.3" cy="0.3" r="0.8">
      <stop offset="0%" style="stop-color:#ffffff;stop-opacity:1" />
      <stop offset="100%" style="stop-color:#2563eb;stop-opacity:1" />
    </radialGradient>
  </defs>

  <!-- Pentágonos da bola -->
  <path d="M16 3 L20.5 6.5 L20.5 13.5 L16 17 L11.5 13.5 L11.5 6.5 Z" fill="none" stroke="#ffffff" stroke-width="0.5"/>
  <path d="M16 29 L20.5 25.5 L20.5 18.5 L16 15 L11.5 18.5 L11.5 25.5 Z" fill="none" stroke="#ffffff" stroke-width="0.5"/>
  <path d="M29 16 L25.5 20.5 L18.5 20.5 L15 16 L18.5 11.5 L25.5 11.5 Z" fill="none" stroke="#ffffff" stroke-width="0.5"/>
  <path d="M3 16 L6.5 11.5 L13.5 11.5 L17 16 L13.5 20.5 L6.5 20.5 Z" fill="none" stroke="#ffffff" stroke-width="0.5"/>

  <!-- Campo de futebol estilizado -->
  <rect x="8" y="12" width="16" height="8" rx="1" fill="none" stroke="#ffffff" stroke-width="0.5"/>
  <circle cx="16" cy="16" r="2" fill="none" stroke="#ffffff" stroke-width="0.3"/>
  <line x1="16" y1="12" x2="16" y2="20" stroke="#ffffff" stroke-width="0.3"/>
  <line x1="12" y1="16" x2="20" y2="16" stroke="#ffffff" stroke-width="0.3"/>
</svg>
